<?xml version="1.0" standalone="no"?>
<!DOCTYPE svg PUBLIC "-//W3C//DTD SVG 20010904//EN"
 "http://www.w3.org/TR/2001/REC-SVG-20010904/DTD/svg10.dtd">
<svg version="1.0" xmlns="http://www.w3.org/2000/svg"
 width="900.000000pt" height="540.000000pt" viewBox="0 0 900.000000 540.000000"
 preserveAspectRatio="xMidYMid meet">

<g transform="translate(0.000000,540.000000) scale(0.100000,-0.100000)"
fill="#000000" stroke="none">
<path d="M2150 4250 l0 -411 48 -20 c26 -11 274 -112 552 -224 278 -112 678
-274 890 -360 212 -86 547 -221 745 -301 198 -80 366 -149 374 -154 15 -8 36
1 -549 -235 -228 -92 -584 -236 -790 -320 -435 -176 -600 -243 -985 -398
l-280 -113 -3 -416 -2 -416 532 214 c1304 526 2112 852 2388 964 124 50 339
136 478 192 l252 102 -2 420 -3 420 -700 283 c-385 155 -839 339 -1010 407
-170 69 -431 174 -580 234 -148 60 -445 180 -660 267 -214 86 -456 184 -536
216 -80 32 -149 59 -152 59 -4 0 -7 -185 -7 -410z"/>
</g>
</svg>
