<svg id="svg" version="1.1" xmlns="http://www.w3.org/2000/svg" xmlns:xlink="http://www.w3.org/1999/xlink" width="400" height="110.15625" viewBox="0, 0, 400,110.15625"><g id="svgg"><path id="path0" d="M232.540 9.012 L 232.583 15.025 235.000 15.989 C 241.683 18.654,243.463 19.349,243.974 19.494 C 244.281 19.581,245.818 20.171,247.391 20.806 C 248.963 21.440,251.272 22.361,252.521 22.853 L 254.793 23.748 253.868 24.124 C 253.359 24.331,252.858 24.500,252.754 24.500 C 252.650 24.500,251.407 24.955,249.991 25.511 C 248.575 26.067,246.779 26.735,246.000 26.995 C 245.221 27.254,243.526 27.887,242.233 28.400 C 240.940 28.913,239.815 29.332,239.733 29.329 C 239.651 29.327,238.121 29.884,236.333 30.567 C 234.546 31.249,232.952 31.849,232.792 31.899 C 232.521 31.983,232.500 32.430,232.500 38.179 C 232.500 44.009,232.517 44.362,232.792 44.249 C 232.952 44.182,233.308 44.073,233.583 44.006 C 233.858 43.938,235.335 43.347,236.864 42.692 C 238.394 42.036,239.723 41.500,239.820 41.500 C 239.916 41.500,241.139 41.004,242.539 40.398 C 243.938 39.792,245.336 39.224,245.645 39.135 C 245.953 39.046,247.341 38.487,248.728 37.893 C 250.115 37.299,251.666 36.672,252.174 36.500 C 252.683 36.327,254.144 35.732,255.422 35.176 C 256.700 34.621,257.833 34.167,257.941 34.167 C 258.048 34.167,259.350 33.642,260.833 33.000 C 262.317 32.358,263.603 31.833,263.692 31.833 C 263.780 31.833,265.030 31.334,266.468 30.723 C 267.906 30.112,269.646 29.413,270.333 29.171 L 271.583 28.730 271.583 23.682 L 271.583 18.634 269.667 17.876 C 268.612 17.459,266.662 16.667,265.333 16.116 C 264.004 15.565,262.509 14.970,262.010 14.794 C 261.512 14.619,259.974 14.002,258.594 13.424 C 257.213 12.845,255.896 12.321,255.667 12.259 C 255.438 12.197,255.100 12.077,254.917 11.993 C 253.844 11.503,249.786 9.833,249.666 9.833 C 249.588 9.833,248.198 9.271,246.578 8.583 C 244.958 7.896,243.545 7.333,243.439 7.333 C 243.332 7.333,242.231 6.893,240.992 6.354 C 239.753 5.816,238.217 5.186,237.578 4.956 C 236.939 4.726,235.607 4.191,234.618 3.769 C 233.628 3.346,232.746 3.000,232.657 3.000 C 232.555 3.000,232.512 5.219,232.540 9.012 " stroke="none" fill="#bc04fc" fill-rule="evenodd"></path><path id="path1" d="M256.417 47.442 C 255.500 47.854,254.000 48.476,253.083 48.824 C 252.167 49.172,250.592 49.816,249.583 50.255 C 248.575 50.694,247.262 51.216,246.667 51.415 L 245.583 51.777 245.539 56.055 L 245.494 60.333 242.831 60.333 L 240.167 60.333 240.167 65.250 L 240.167 70.167 242.833 70.167 L 245.500 70.167 245.503 82.042 C 245.508 98.230,245.793 99.893,249.107 103.055 C 252.687 106.471,260.314 107.661,266.875 105.826 L 267.500 105.651 267.500 100.575 C 267.500 97.784,267.462 95.500,267.415 95.500 C 267.368 95.500,266.788 95.650,266.126 95.833 C 263.328 96.609,260.488 96.112,259.540 94.681 C 258.672 93.371,258.667 93.289,258.667 81.303 L 258.667 70.167 263.000 70.167 L 267.333 70.167 267.333 65.250 L 267.333 60.333 263.000 60.333 L 258.667 60.333 258.667 53.500 C 258.667 47.098,258.648 46.667,258.375 46.680 C 258.215 46.687,257.333 47.030,256.417 47.442 M21.043 59.516 C 11.384 60.377,5.888 65.179,4.422 74.042 L 4.318 74.667 10.563 74.667 L 16.807 74.667 16.914 74.125 C 17.206 72.650,17.856 71.241,18.494 70.699 C 22.187 67.559,27.937 68.460,29.512 72.426 C 29.842 73.256,29.915 73.783,29.965 75.682 L 30.024 77.947 24.637 78.052 C 11.954 78.300,5.823 81.308,3.579 88.384 C 2.461 91.909,2.922 97.921,4.481 100.147 C 4.649 100.387,4.920 100.870,5.084 101.219 C 5.404 101.904,7.800 104.200,8.701 104.686 C 16.050 108.653,26.227 107.211,29.958 101.674 L 30.333 101.117 30.333 103.559 L 30.333 106.000 36.672 106.000 L 43.011 106.000 42.955 89.292 C 42.886 68.551,42.969 69.140,39.515 64.809 C 36.450 60.965,28.939 58.813,21.043 59.516 M69.667 59.447 C 63.668 59.890,57.575 63.056,54.558 67.298 C 54.120 67.913,53.637 68.553,53.483 68.719 C 53.131 69.102,51.483 72.735,51.012 74.168 C 49.035 80.184,49.653 91.417,52.190 95.577 C 52.360 95.855,52.499 96.206,52.499 96.356 C 52.501 97.066,55.418 100.815,56.971 102.102 C 65.834 109.448,80.679 108.512,87.942 100.149 C 88.434 99.583,90.000 97.096,90.000 96.881 C 90.000 96.757,90.187 96.287,90.415 95.837 C 90.919 94.842,91.596 92.556,91.835 91.037 C 91.932 90.421,92.045 89.710,92.085 89.458 L 92.158 89.000 86.166 89.000 L 80.173 89.000 80.097 89.375 C 80.056 89.581,79.986 90.021,79.941 90.353 C 79.367 94.676,74.425 97.950,70.036 96.915 C 65.136 95.759,63.075 91.706,63.091 83.250 C 63.105 75.127,65.244 71.017,70.117 69.748 C 74.313 68.655,77.928 71.056,79.092 75.708 L 79.374 76.833 85.604 76.833 C 90.477 76.833,91.833 76.788,91.833 76.625 C 91.829 75.366,91.136 72.572,90.169 69.917 C 89.520 68.132,87.481 65.294,85.980 64.085 C 85.637 63.809,85.145 63.413,84.887 63.206 C 81.628 60.587,75.320 59.030,69.667 59.447 M116.917 59.433 C 103.049 60.841,95.528 71.776,97.336 87.905 C 98.038 94.170,100.954 99.849,104.917 102.672 C 106.412 103.737,108.371 104.864,109.282 105.183 C 113.168 106.545,114.589 106.833,118.000 106.949 C 126.329 107.233,132.568 104.313,136.466 98.306 C 137.756 96.318,139.333 91.371,139.333 89.312 C 139.333 89.013,139.084 89.000,133.430 89.000 L 127.526 89.000 127.418 89.542 C 126.496 94.159,123.374 97.035,119.250 97.070 C 113.629 97.116,110.703 93.139,110.247 84.833 C 109.733 75.481,113.267 69.500,119.307 69.500 C 123.060 69.500,125.282 71.671,126.601 76.625 C 126.644 76.787,128.036 76.833,132.852 76.833 L 139.048 76.833 138.941 75.688 C 138.828 74.464,138.167 71.724,137.765 70.807 C 137.630 70.500,137.481 70.059,137.432 69.825 C 137.303 69.204,135.555 66.497,134.544 65.350 C 130.963 61.291,123.451 58.770,116.917 59.433 M164.167 59.426 C 163.938 59.465,163.112 59.582,162.333 59.687 C 160.945 59.874,158.989 60.412,156.833 61.202 C 151.690 63.087,146.355 69.561,145.191 75.334 C 143.338 84.518,144.667 94.045,148.484 98.938 C 151.437 102.724,154.798 104.897,159.661 106.164 C 166.517 107.949,175.202 106.725,179.750 103.332 C 180.208 102.990,180.791 102.578,181.046 102.417 C 183.389 100.928,187.000 94.548,187.000 91.898 L 187.000 91.500 181.026 91.500 L 175.053 91.500 174.862 92.138 C 173.018 98.291,163.033 99.462,159.616 93.926 C 158.454 92.043,157.500 88.999,157.500 87.174 L 157.500 86.500 172.267 86.500 L 187.034 86.500 186.959 81.708 C 186.870 76.015,186.690 74.912,185.169 70.757 C 183.731 66.827,178.974 62.058,175.583 61.146 C 175.308 61.072,174.431 60.790,173.633 60.520 C 171.228 59.705,166.046 59.105,164.167 59.426 M218.745 59.507 C 214.359 60.081,210.383 62.363,208.159 65.583 L 207.583 66.417 207.538 63.375 L 207.492 60.333 200.996 60.333 L 194.500 60.333 194.500 83.167 L 194.500 106.000 201.000 106.000 L 207.500 106.000 207.500 91.259 L 207.500 76.517 207.921 75.185 C 209.033 71.666,211.966 69.798,215.993 70.045 C 218.716 70.212,220.116 71.075,221.162 73.230 C 221.975 74.904,221.997 75.388,221.999 91.208 L 222.000 106.000 228.507 106.000 L 235.013 106.000 234.953 88.958 C 234.888 70.515,234.920 71.196,233.977 68.338 C 233.016 65.427,230.655 62.179,228.903 61.355 C 228.635 61.229,228.075 60.955,227.657 60.746 C 225.386 59.611,221.783 59.110,218.745 59.507 M374.083 59.433 C 363.569 60.498,356.381 67.306,354.809 77.689 C 353.563 85.925,355.013 94.142,358.564 98.957 C 359.414 100.110,361.902 102.667,362.174 102.667 C 362.269 102.667,362.491 102.800,362.666 102.964 C 367.626 107.584,381.249 108.290,388.333 104.292 C 392.804 101.770,397.000 95.798,397.000 91.960 L 397.000 91.496 391.058 91.540 L 385.117 91.583 384.896 92.221 C 382.742 98.444,373.016 99.413,369.556 93.750 C 368.518 92.051,367.500 88.702,367.500 86.985 L 367.500 86.500 382.360 86.500 L 397.220 86.500 397.115 82.208 C 396.974 76.412,396.742 75.091,395.034 70.315 C 392.575 63.444,383.097 58.521,374.083 59.433 M348.745 59.838 C 347.076 59.976,345.508 60.333,344.372 60.836 C 343.961 61.018,343.539 61.167,343.435 61.167 C 342.292 61.167,338.369 65.156,337.372 67.333 L 337.028 68.083 337.014 64.208 L 337.000 60.333 330.500 60.333 L 324.000 60.333 324.000 83.167 L 324.000 106.000 330.491 106.000 L 336.983 106.000 337.050 93.292 C 337.125 79.306,337.130 79.228,338.151 77.444 C 339.774 74.608,343.053 73.012,347.833 72.734 C 348.613 72.688,349.569 72.613,349.958 72.565 L 350.667 72.480 350.667 66.073 C 350.667 61.046,350.622 59.672,350.458 59.690 C 350.344 59.703,349.573 59.770,348.745 59.838 M274.877 77.792 C 274.933 93.609,274.966 95.352,275.224 96.333 C 276.974 102.979,281.440 106.640,288.176 106.951 C 293.859 107.213,298.514 105.149,301.352 101.107 L 302.167 99.948 302.167 102.974 L 302.167 106.000 308.583 106.000 L 315.000 106.000 315.000 83.167 L 315.000 60.333 308.583 60.333 L 302.167 60.333 302.164 75.042 C 302.161 92.395,302.258 91.424,300.274 94.117 C 298.053 97.133,292.197 97.705,289.693 95.151 C 287.820 93.241,287.839 93.432,287.836 75.625 L 287.833 60.333 281.324 60.333 L 274.815 60.333 274.877 77.792 M168.331 68.760 C 171.711 69.556,173.823 72.406,174.271 76.771 L 174.379 77.833 166.004 77.833 L 157.629 77.833 157.741 77.085 C 158.646 71.047,163.119 67.531,168.331 68.760 M379.040 68.917 C 381.895 69.839,383.895 72.770,384.308 76.636 L 384.436 77.833 376.044 77.833 L 367.652 77.833 367.764 77.208 C 368.948 70.610,373.627 67.169,379.040 68.917 M30.000 89.478 L 30.000 92.455 29.416 93.622 C 26.414 99.624,16.402 99.190,15.886 93.036 C 15.487 88.273,18.463 86.622,27.625 86.525 L 30.000 86.500 30.000 89.478 " stroke="none" fill="#040404" fill-rule="evenodd"></path><path id="path2" d="" stroke="none" fill="#c004c0" fill-rule="evenodd"></path><path id="path3" d="" stroke="none" fill="#640440" fill-rule="evenodd"></path><path id="path4" d="" stroke="none" fill="#040444" fill-rule="evenodd"></path></g></svg>