<?xml version="1.0" standalone="no"?>
<!DOCTYPE svg PUBLIC "-//W3C//DTD SVG 20010904//EN"
 "http://www.w3.org/TR/2001/REC-SVG-20010904/DTD/svg10.dtd">
<svg version="1.0" xmlns="http://www.w3.org/2000/svg"
 width="837.000000pt" height="375.000000pt" viewBox="0 0 837.000000 375.000000"
 preserveAspectRatio="xMidYMid meet">

<g transform="translate(0.000000,375.000000) scale(0.100000,-0.100000)"
fill="#000000" stroke="none">
<path d="M140 1880 l0 -1740 4050 0 4050 0 -2 1738 -3 1737 -4047 3 -4048 2 0
-1740z m8030 -5 l0 -1675 -3985 0 -3985 0 0 1675 0 1675 3985 0 3985 0 0
-1675z"/>
<path d="M2262 3010 c-246 -65 -402 -248 -419 -494 -10 -145 37 -268 141 -371
238 -235 667 -226 881 18 112 128 161 317 124 476 -28 121 -136 256 -256 319
-135 71 -320 91 -471 52z m288 -60 c169 -67 274 -227 287 -440 12 -194 -76
-379 -211 -445 -150 -73 -339 -39 -470 85 -159 151 -198 430 -88 633 40 75
130 152 205 177 80 26 197 22 277 -10z"/>
<path d="M3392 3011 c-193 -67 -230 -265 -76 -412 27 -26 108 -85 180 -132
134 -88 218 -166 230 -212 11 -43 -2 -111 -26 -145 -13 -19 -46 -43 -78 -58
-46 -21 -65 -24 -122 -20 -110 8 -177 56 -225 161 -20 42 -32 57 -47 57 -17 0
-20 -5 -15 -27 3 -16 11 -72 18 -125 11 -89 14 -98 34 -98 11 0 25 4 31 9 5 6
35 2 79 -11 46 -13 101 -21 160 -21 78 -1 98 2 150 26 118 55 175 135 175 247
0 129 -49 190 -270 335 -88 58 -172 121 -193 145 -98 115 -29 250 128 250 90
0 191 -66 236 -152 11 -23 27 -38 37 -38 17 0 17 6 6 88 -7 48 -13 97 -13 110
-1 24 -21 29 -49 11 -14 -9 -34 -6 -86 10 -86 26 -191 27 -264 2z"/>
<path d="M4049 3018 c0 -7 -6 -68 -12 -136 -12 -119 -12 -123 7 -120 14 2 23
19 37 68 28 105 39 110 220 110 l150 0 -3 -425 -3 -424 -22 -23 c-18 -18 -37
-23 -93 -26 -61 -4 -70 -7 -70 -23 0 -18 12 -19 260 -19 253 0 260 1 260 20 0
18 -7 20 -57 20 -32 0 -69 6 -83 13 -46 23 -49 54 -49 485 l-1 402 148 0 c98
0 155 -4 172 -13 24 -12 49 -66 64 -139 5 -20 13 -28 27 -28 19 0 21 4 16 43
-4 23 -9 74 -12 112 -9 102 -13 115 -35 115 -10 0 -22 -4 -25 -10 -4 -6 -157
-10 -425 -10 -268 0 -421 4 -425 10 -9 14 -45 12 -46 -2z"/>
<path d="M5562 3015 c-210 -47 -381 -214 -422 -412 -17 -82 -8 -225 19 -295
58 -150 198 -266 381 -315 89 -23 255 -23 335 1 138 41 271 139 333 244 91
156 105 360 33 500 -57 112 -177 212 -311 259 -94 32 -268 41 -368 18z m223
-50 c82 -22 147 -60 204 -120 92 -97 135 -217 133 -375 -2 -290 -187 -475
-441 -439 -217 31 -373 215 -388 459 -20 326 210 548 492 475z"/>
<path d="M790 3011 c-68 -5 -85 -9 -88 -22 -2 -13 10 -18 64 -24 51 -5 72 -13
90 -30 l24 -24 0 -405 0 -405 -23 -27 c-20 -23 -33 -27 -95 -32 -62 -4 -72 -7
-72 -24 0 -18 11 -19 353 -16 l352 3 67 33 c109 53 169 148 170 266 0 109 -56
194 -167 250 l-50 25 29 11 c40 15 75 45 105 88 21 31 26 49 26 104 0 58 -4
72 -30 109 -72 103 -175 130 -473 127 -109 -1 -235 -4 -282 -7z m529 -66 c70
-38 101 -92 101 -174 0 -74 -24 -119 -81 -151 -39 -22 -58 -25 -176 -28 l-133
-4 0 197 0 197 118 -4 c106 -4 122 -7 171 -33z m6 -424 c65 -29 93 -55 121
-116 32 -68 32 -152 0 -220 -28 -60 -46 -77 -111 -106 -65 -29 -193 -32 -243
-5 -55 29 -62 60 -62 282 l0 196 123 -4 c98 -3 132 -9 172 -27z"/>
<path d="M6444 2995 c-9 -22 4 -35 37 -35 16 0 45 -7 64 -14 l35 -15 0 -414
c0 -403 -1 -415 -21 -440 -15 -20 -33 -28 -70 -33 -39 -5 -49 -10 -49 -25 0
-18 11 -19 195 -19 188 0 195 1 195 20 0 16 -7 20 -32 20 -53 0 -107 19 -120
43 -10 16 -14 104 -16 322 -2 165 -2 331 0 369 l3 70 408 -427 c355 -371 413
-427 438 -427 l29 0 0 469 c0 530 -6 492 84 501 44 4 51 8 54 28 l3 22 -193
-2 c-185 -3 -193 -4 -193 -23 0 -17 9 -21 60 -26 99 -11 95 5 95 -387 l0 -336
-31 30 c-16 16 -184 190 -372 386 l-342 358 -128 0 c-102 0 -129 -3 -133 -15z"/>
<path d="M5330 1435 c-51 -23 -89 -64 -100 -107 -24 -86 16 -143 171 -248 138
-94 159 -117 159 -175 0 -87 -101 -141 -197 -104 -40 15 -91 67 -104 106 -6
18 -17 33 -26 33 -13 0 -14 -9 -9 -52 15 -118 14 -117 54 -117 21 0 53 -5 72
-10 63 -19 141 -13 198 15 70 35 95 73 100 149 5 91 -25 132 -170 228 -63 41
-125 87 -136 102 -22 27 -28 77 -16 110 16 41 118 59 173 31 30 -16 91 -80 91
-96 0 -6 7 -10 16 -10 13 0 15 10 9 68 -4 37 -9 69 -12 72 -2 2 -23 5 -46 7
-23 1 -76 4 -117 8 -56 4 -84 1 -110 -10z"/>
<path d="M6245 1390 c-3 -30 -8 -70 -11 -88 -8 -53 25 -38 42 18 19 63 33 70
141 70 l93 0 0 -285 c0 -321 4 -305 -79 -305 -30 0 -41 -4 -41 -15 0 -13 26
-15 176 -15 136 0 175 3 172 13 -3 6 -27 14 -54 17 -74 8 -74 9 -71 320 l2
265 103 0 c117 0 125 -5 137 -76 4 -24 12 -39 21 -39 16 0 17 25 8 116 l-6 59
-314 0 -313 0 -6 -55z"/>
<path d="M700 1421 c0 -15 8 -21 32 -23 52 -5 58 -28 58 -242 0 -115 5 -204
12 -228 16 -53 77 -120 135 -149 42 -21 63 -24 163 -24 135 0 182 17 249 90
60 66 71 115 71 332 0 170 1 184 20 203 11 11 31 20 45 20 18 0 25 5 25 20 0
20 -5 20 -127 18 -106 -3 -128 -6 -128 -18 0 -10 12 -16 31 -18 18 -2 40 -12
50 -24 17 -18 19 -39 19 -217 0 -185 -1 -198 -23 -238 -36 -68 -87 -96 -187
-101 -93 -5 -140 7 -187 46 -60 51 -68 84 -68 308 0 142 3 203 12 212 7 7 27
12 45 12 26 0 33 4 33 20 0 19 -7 20 -140 20 -132 0 -140 -1 -140 -19z"/>
<path d="M1615 1430 c-9 -15 4 -30 26 -30 11 0 29 -5 40 -10 18 -10 19 -24 19
-285 0 -301 -1 -305 -61 -305 -19 0 -29 -5 -29 -15 0 -13 21 -15 130 -15 109
0 130 2 130 15 0 10 -11 15 -35 15 -22 0 -43 8 -55 20 -19 19 -20 33 -20 262
l0 243 29 -30 c15 -17 136 -142 267 -280 152 -159 247 -251 261 -253 l23 -3 0
308 c0 227 3 312 12 321 7 7 27 12 45 12 26 0 33 4 33 20 0 20 -5 20 -127 18
-106 -3 -128 -6 -128 -18 0 -10 12 -16 36 -18 68 -6 70 -12 67 -256 l-3 -218
-244 256 -244 256 -83 0 c-46 0 -86 -4 -89 -10z"/>
<path d="M2575 1429 c-9 -14 -1 -21 38 -34 l32 -10 0 -285 0 -285 -35 -11
c-19 -6 -36 -16 -38 -23 -3 -8 35 -11 132 -11 112 0 136 3 136 14 0 9 -12 16
-32 18 -54 5 -58 24 -58 298 0 274 4 293 58 298 24 2 32 8 32 23 0 18 -8 19
-129 19 -81 0 -132 -4 -136 -11z"/>
<path d="M2940 1420 c0 -14 7 -20 23 -20 13 0 31 -6 40 -12 9 -7 73 -152 141
-323 l124 -310 33 -3 34 -3 79 208 c162 422 172 443 223 443 16 0 23 6 23 20
0 20 -5 20 -127 18 -106 -3 -128 -6 -128 -18 0 -9 11 -16 25 -18 58 -6 70 -12
70 -35 1 -31 -172 -479 -181 -470 -4 4 -49 113 -100 241 -91 226 -93 234 -74
248 10 8 36 14 57 14 31 0 38 4 38 20 0 19 -7 20 -150 20 -143 0 -150 -1 -150
-20z"/>
<path d="M3730 1421 c0 -16 8 -20 42 -23 67 -5 69 -12 66 -311 -3 -293 -2
-287 -85 -287 -32 0 -43 -4 -43 -15 0 -13 38 -15 285 -15 l284 0 5 33 c15 101
16 127 1 127 -8 0 -23 -20 -34 -44 -10 -24 -29 -50 -41 -56 -24 -13 -225 -19
-252 -8 -16 7 -18 23 -18 138 l0 130 93 0 c103 0 123 -8 135 -55 5 -17 15 -30
23 -30 11 0 14 21 14 105 0 82 -3 105 -14 105 -7 0 -18 -16 -25 -35 l-11 -35
-107 -3 -108 -3 0 126 0 127 120 -4 c70 -2 124 -8 130 -14 6 -6 17 -29 25 -50
7 -22 21 -41 30 -43 15 -2 17 2 11 29 -3 18 -6 54 -6 81 l0 49 -260 0 c-251 0
-260 -1 -260 -19z"/>
<path d="M4448 1433 c-41 -7 -36 -33 6 -33 66 0 66 -1 66 -300 0 -299 0 -300
-66 -300 -24 0 -34 -5 -34 -15 0 -13 24 -15 155 -15 131 0 155 2 155 15 0 11
-11 15 -39 15 -60 0 -71 23 -71 142 l0 98 60 0 c33 0 63 1 67 3 4 1 38 -36 76
-83 141 -174 165 -192 280 -206 53 -6 57 -5 57 15 0 15 -6 21 -20 21 -44 0
-84 35 -180 156 l-99 126 41 31 c79 61 99 145 55 228 -18 34 -36 51 -82 74
-58 30 -60 30 -229 31 -94 1 -183 0 -198 -3z m314 -35 c76 -23 118 -99 104
-192 -13 -84 -65 -124 -177 -133 l-69 -6 0 172 0 171 51 0 c29 0 69 -5 91 -12z"/>
<path d="M5840 1420 c0 -14 7 -20 24 -20 45 0 46 -11 44 -306 l-3 -279 -32
-10 c-18 -5 -33 -15 -33 -22 0 -10 30 -13 130 -13 109 0 130 2 130 15 0 9 -9
15 -23 15 -13 0 -32 6 -43 14 -18 14 -19 29 -19 284 0 294 2 302 56 302 22 0
29 5 29 20 0 19 -7 20 -130 20 -123 0 -130 -1 -130 -20z"/>
<path d="M6940 1420 c0 -15 7 -20 29 -20 47 0 83 -40 196 -215 l105 -165 0
-94 c0 -108 -10 -126 -66 -126 -24 0 -34 -5 -34 -15 0 -13 23 -15 150 -15 124
0 150 3 150 14 0 10 -13 16 -37 18 -50 4 -63 31 -63 136 l0 83 101 170 c102
173 134 209 187 209 15 0 22 6 22 20 0 19 -7 20 -125 20 -117 0 -125 -1 -125
-19 0 -15 8 -21 33 -23 25 -2 32 -7 31 -24 0 -21 -142 -274 -153 -274 -3 0
-36 46 -72 103 -123 189 -126 197 -68 197 22 0 29 5 29 20 0 19 -7 20 -145 20
-138 0 -145 -1 -145 -20z"/>
</g>
</svg>
