<?xml version="1.0" encoding="UTF-8"?>
<svg version="1.1" xmlns="http://www.w3.org/2000/svg" width="837" height="375">
<path d="M0 0 C276.21 0 552.42 0 837 0 C837 123.75 837 247.5 837 375 C560.79 375 284.58 375 0 375 C0 251.25 0 127.5 0 0 Z " fill="#F5013E" transform="translate(0,0)"/>
<path d="M0 0 C276.21 0 552.42 0 837 0 C837 123.75 837 247.5 837 375 C560.79 375 284.58 375 0 375 C0 251.25 0 127.5 0 0 Z M14 13 C14 127.84 14 242.68 14 361 C280.97 361 547.94 361 823 361 C823 246.16 823 131.32 823 13 C556.03 13 289.06 13 14 13 Z " fill="#F5033F" transform="translate(0,0)"/>
<path d="M0 0 C266.97 0 533.94 0 809 0 C809 114.84 809 229.68 809 348 C542.03 348 275.06 348 0 348 C0 233.16 0 118.32 0 0 Z M5 6 C5 116.88 5 227.76 5 342 C268.67 342 532.34 342 804 342 C804 231.12 804 120.24 804 6 C540.33 6 276.66 6 5 6 Z " fill="#FEF2F5" transform="translate(14,13)"/>
<path d="M0 0 C1.56669957 -0.01174643 3.13336997 -0.02871221 4.69995117 -0.05126953 C18.28234057 -0.23568857 32.66762267 0.20761946 43.4239502 9.66186523 C47.74988258 14.54676641 49.54101333 20.65711559 49.19348145 27.10327148 C48.09880151 33.25379278 44.31991819 37.05247891 39.69348145 40.97045898 C37.50428815 42.44054097 35.28539443 43.3294599 32.8145752 44.23217773 C33.5158252 44.56088867 34.2170752 44.88959961 34.9395752 45.22827148 C42.66274214 49.10034839 48.99473116 53.70379929 53.0020752 61.56030273 C55.25585927 68.97178497 54.9692446 77.89070033 51.5645752 84.85717773 C50.68556709 86.33851451 49.7732514 87.80111036 48.8145752 89.23217773 C48.2164502 90.16030273 47.6183252 91.08842773 47.0020752 92.04467773 C38.63172034 100.41503259 28.0603027 102.53552011 16.53283978 102.5804491 C14.45598634 102.57186226 12.3795881 102.54880929 10.30285645 102.52514648 C8.83884622 102.5195372 7.37483029 102.51527342 5.91081238 102.51228333 C2.0951019 102.50093916 -1.72025495 102.47156479 -5.53582764 102.43817139 C-9.44436869 102.40724276 -13.352968 102.39372976 -17.26159668 102.37866211 C-24.9030323 102.34668261 -32.54417863 102.29561623 -40.1854248 102.23217773 C-40.1854248 100.91217773 -40.1854248 99.59217773 -40.1854248 98.23217773 C-38.61341309 98.06782227 -38.61341309 98.06782227 -37.00964355 97.90014648 C-35.63065829 97.740672 -34.25175609 97.58047808 -32.8729248 97.41967773 C-32.18263184 97.34942383 -31.49233887 97.27916992 -30.78112793 97.20678711 C-26.95658138 96.74585158 -26.95658138 96.74585158 -23.48629761 95.18103027 C-21.43890553 92.11380861 -21.76877984 88.88489099 -21.79724121 85.32006836 C-21.79198425 84.5149028 -21.78672729 83.70973724 -21.78131104 82.88017273 C-21.76809656 80.21606097 -21.77685408 77.55254568 -21.7869873 74.88842773 C-21.78496698 73.03902064 -21.78205589 71.18961432 -21.77828979 69.34020996 C-21.77386449 65.46313903 -21.78030414 61.58627537 -21.79431152 57.70922852 C-21.81140354 52.7355525 -21.80156346 47.76236211 -21.78359413 42.78870392 C-21.77276187 38.96946544 -21.77620006 35.15034239 -21.78397751 31.33110046 C-21.78598106 29.4970443 -21.78351481 27.66297771 -21.77653885 25.82893372 C-21.7689335 23.26710178 -21.78051529 20.70606008 -21.79724121 18.14428711 C-21.79116852 17.38367477 -21.78509583 16.62306244 -21.77883911 15.83940125 C-21.81672887 11.82650607 -21.81672887 11.82650607 -23.51364136 8.2833252 C-26.15595499 6.62194898 -28.80457478 6.43961388 -31.8729248 6.04467773 C-33.05241699 5.88612305 -34.23190918 5.72756836 -35.44714355 5.56420898 C-36.35077637 5.45463867 -37.25440918 5.34506836 -38.1854248 5.23217773 C-38.1854248 3.91217773 -38.1854248 2.59217773 -38.1854248 1.23217773 C-25.46496792 0.44765616 -12.74308173 0.08175713 0 0 Z " fill="#FEF7F9" transform="translate(109.1854248046875,72.767822265625)"/>
<path d="M0 0 C11.11140501 7.05565838 18.65944497 17.19453904 22 30 C24.82790789 45.55349341 23.69680962 62.31476797 14.75390625 75.78515625 C8.19338835 84.06981917 0.34201038 88.87250072 -10 91 C-23.83028904 92.27055366 -34.4637846 87.84176066 -45.0859375 79.328125 C-55.10471778 70.34577027 -60.17853187 56.52903028 -61.3125 43.375 C-61.78263729 29.03581255 -57.4895023 15.39805811 -47.80078125 4.6328125 C-34.41052349 -7.50846243 -15.5396129 -8.3935052 0 0 Z " fill="#F5013E" transform="translate(261,82)"/>
<path d="M0 0 C8.41587934 6.68064649 13.94532995 15.22908564 17.125 25.4375 C17.34929687 26.14132813 17.57359375 26.84515625 17.8046875 27.5703125 C21.46478956 41.15781465 19.28483834 57.06477364 12.75 69.5 C7.31452781 78.17362584 0.8909155 84.01575818 -8.875 87.4375 C-21.89456351 89.8116557 -33.9224218 87.93926589 -44.875 80.4375 C-55.10610158 72.90559899 -61.2462454 62.44429251 -64.4609375 50.20703125 C-66.69424558 35.26914984 -64.93518875 20.57796872 -56.63671875 7.72265625 C-42.71453688 -10.33604973 -18.78291067 -12.63436118 0 0 Z " fill="#F5013E" transform="translate(593.875,84.5625)"/>
<path d="M0 0 C4.31104379 -0.29290044 8.61951287 -0.46879375 12.9375 -0.625 C14.14986328 -0.70878906 15.36222656 -0.79257813 16.61132812 -0.87890625 C25.53118029 -1.12063666 25.53118029 -1.12063666 29.6015625 1.98486328 C31.89598124 4.55917346 33.94264285 7.23412758 36 10 C37.34887596 11.42616771 38.72560397 12.82666907 40.1328125 14.1953125 C40.79410156 14.84886719 41.45539062 15.50242187 42.13671875 16.17578125 C42.79285156 16.81902344 43.44898438 17.46226563 44.125 18.125 C48.05031852 21.97409874 51.90256949 25.82497656 55.4921875 29.9921875 C59.12520787 34.20895768 63.02821082 38.10429874 67 42 C68.35672297 43.3307321 69.71090465 44.6640602 71.0625 46 C71.65160156 46.5775 72.24070312 47.155 72.84765625 47.75 C74.69799781 49.68429535 76.44235672 51.6594894 78.1875 53.6875 C82.23017942 58.33790248 86.55778022 62.66906887 90.9375 67 C91.71673828 67.77472656 92.49597656 68.54945313 93.29882812 69.34765625 C95.1969242 71.23410757 97.09733149 73.11816245 99 75 C99.11578527 66.3162096 99.2046592 57.63268434 99.25906086 48.94829082 C99.28516951 44.91585235 99.32058908 40.88394144 99.37719727 36.85180664 C99.43147429 32.96142702 99.46141098 29.07155517 99.47438622 25.18082619 C99.48363409 23.69557511 99.50169341 22.21035223 99.52865028 20.725317 C99.56488769 18.64658676 99.56994822 16.56996141 99.56762695 14.4909668 C99.57873001 13.30738083 99.58983307 12.12379486 99.60127258 10.90434265 C99.28749313 7.81101284 99.28749313 7.81101284 96.61808777 6.13996887 C94.11760406 5.05120721 91.86008277 4.33106084 89.1875 3.8125 C88.39730469 3.65394531 87.60710937 3.49539062 86.79296875 3.33203125 C86.20128906 3.22246094 85.60960937 3.11289063 85 3 C85 2.01 85 1.02 85 0 C97.54 0 110.08 0 123 0 C123 0.99 123 1.98 123 3 C121.60974609 3.29003906 121.60974609 3.29003906 120.19140625 3.5859375 C118.99386719 3.84632812 117.79632812 4.10671875 116.5625 4.375 C115.36753906 4.63023438 114.17257812 4.88546875 112.94140625 5.1484375 C111.97074219 5.42945312 111.00007812 5.71046875 110 6 C108.33121557 9.33756887 108.81918235 13.09226197 108.79467773 16.76416016 C108.78477814 17.67153427 108.77487854 18.57890839 108.76467896 19.51377869 C108.73301391 22.5221798 108.70828676 25.53059673 108.68359375 28.5390625 C108.66302854 30.62129128 108.64203219 32.70351584 108.62062073 34.78573608 C108.5653553 40.27332145 108.51596576 45.76094476 108.46777344 51.24859619 C108.41759103 56.84545276 108.36188797 62.44225404 108.30664062 68.0390625 C108.19900438 79.02599446 108.09757157 90.01297437 108 101 C103.20623779 101.13330078 103.20623779 101.13330078 101.35009766 99.93359375 C100.87620605 99.43988281 100.40231445 98.94617188 99.9140625 98.4375 C99.37982666 97.89230713 98.84559082 97.34711426 98.29516602 96.78540039 C97.74401123 96.19621826 97.19285645 95.60703613 96.625 95 C96.04484131 94.39986084 95.46468262 93.79972168 94.86694336 93.18139648 C91.45681225 89.62947597 88.1865005 85.97955323 85.00390625 82.22265625 C82.12281097 79.02705544 79.05758016 76.02589539 76 73 C68.64293492 65.71901625 68.64293492 65.71901625 65.5625 62.0625 C62.10961404 57.97378849 58.29922802 54.26265302 54.5 50.5 C50.13873252 46.18071825 45.89914459 41.86311948 41.9453125 37.1640625 C38.45708243 33.28358166 34.69846059 29.66042609 30.97241211 26.00952148 C30.38983643 25.43532471 29.80726074 24.86112793 29.20703125 24.26953125 C28.6860083 23.76010986 28.16498535 23.25068848 27.62817383 22.72583008 C25.61240991 20.58916264 23.82526005 18.30016835 22 16 C21.93045306 25.43162708 21.87716496 34.86316573 21.84456348 44.2949934 C21.82891546 48.67470045 21.80769304 53.0542319 21.77368164 57.43383789 C21.74105726 61.66135189 21.72314049 65.88869711 21.71536827 70.11632729 C21.70983028 71.728261 21.69901585 73.34018559 21.68280983 74.95204735 C21.66099418 77.21196747 21.65803473 79.47119249 21.65942383 81.73120117 C21.65276199 83.01693527 21.64610016 84.30266937 21.63923645 85.62736511 C22.02779087 89.25980577 22.74766112 91.14769122 25 94 C27.93431011 95.03179109 27.93431011 95.03179109 31.1875 95.3125 C32.27417969 95.45300781 33.36085938 95.59351563 34.48046875 95.73828125 C35.72763672 95.86783203 35.72763672 95.86783203 37 96 C37 97.32 37 98.64 37 100 C24.46 100 11.92 100 -1 100 C-1 98.68 -1 97.36 -1 96 C-0.31292969 95.90203125 0.37414062 95.8040625 1.08203125 95.703125 C1.98308594 95.55359375 2.88414062 95.4040625 3.8125 95.25 C5.15248047 95.04117188 5.15248047 95.04117188 6.51953125 94.828125 C9.70375136 93.76504679 10.36800229 92.92990057 12 90 C12.27504796 87.23093028 12.37973832 84.69251618 12.34057617 81.92675781 C12.34101425 81.11662735 12.34145233 80.30649689 12.34190369 79.47181702 C12.33981654 76.79867305 12.31648924 74.12615917 12.29296875 71.453125 C12.28737253 69.59796491 12.28310255 67.74280039 12.28010559 65.88763428 C12.26865889 61.0081963 12.23919317 56.12902682 12.20599365 51.24969482 C12.17528903 46.26936475 12.16159941 41.28899123 12.14648438 36.30859375 C12.11432335 26.53894463 12.06312905 16.76949465 12 7 C7.98331946 5.29343106 4.34363544 4.51101593 0 4 C0 2.68 0 1.36 0 0 Z " fill="#FEFBFC" transform="translate(645,75)"/>
<path d="M0 0 C0.84949219 0.26683594 1.69898438 0.53367187 2.57421875 0.80859375 C17.6824683 6.14510262 26.77119155 16.80823034 33.6171875 30.73046875 C38.70602581 42.76255255 36.53733327 57.80829309 31.96875 69.6796875 C25.62877416 83.43058105 14.82703189 93.10878896 0.94921875 98.96875 C-8.21861821 102.17445723 -17.31836068 103.6032174 -27 103 C-27.74507812 102.9690625 -28.49015625 102.938125 -29.2578125 102.90625 C-45.12146097 101.7690709 -59.35625816 93.45987539 -70 82 C-78.49858635 70.96241689 -81.16115021 58.71877476 -80 45 C-77.88728056 29.54746522 -70.24383147 17.42229905 -58.125 7.6875 C-41.51404573 -4.01642586 -19.07794203 -6.30472762 0 0 Z M-53 14 C-61.75690307 25.91346116 -65.26446063 39.39496292 -64 54 C-61.45475158 68.64608661 -55.7237896 80.61110258 -44 90 C-33.2822762 96.5944721 -22.37701939 100.03999433 -9.83984375 97.3125 C1.17227703 93.97127498 9.56183636 87.47996563 15.1875 77.375 C22.02250846 62.47525353 21.84986795 45.15047459 16.25 29.9375 C10.45973515 16.35592288 1.46902735 8.73395736 -12 3 C-26.19699903 -1.89140303 -43.30295749 2.84622689 -53 14 Z " fill="#FEF8FA" transform="translate(264,75)"/>
<path d="M0 0 C10.00177893 7.59440286 17.19210413 18.017302 19.64453125 30.36328125 C21.5421877 44.4393044 18.66749332 57.98174075 11 70 C1.61882863 82.14249082 -10.57398202 91.3987443 -26 94 C-45.06748477 95.40976256 -62.47436548 94.27779973 -78 82 C-87.51806692 73.73313437 -94.90208148 63.7978548 -96.21582031 50.87744141 C-97.16098331 35.11225856 -94.03147602 20.4362318 -83.9375 7.8125 C-61.9302901 -15.61611098 -26.00111239 -16.95477351 0 0 Z M-70.25 7.25 C-79.90390406 19.18329808 -81.27052767 34.29107939 -80 49 C-77.56555006 61.83020917 -71.21186793 73.92056874 -60.578125 81.79296875 C-50.1444939 88.35449142 -38.58478655 91.30905302 -26.25390625 89.56640625 C-16.8077032 87.19257706 -9.02423311 81.49802542 -3.8125 73.375 C3.65972082 60.14876956 6.20317025 44.75387877 2.875 29.875 C-0.70858275 17.31571466 -7.1080364 6.31423375 -18.36328125 -0.6796875 C-37.09001356 -10.05692531 -55.94191443 -7.93409081 -70.25 7.25 Z " fill="#FEF9FA" transform="translate(609,83)"/>
<path d="M0 0 C3.5965894 3.10558743 7.61480476 6.95632612 8.23828125 11.8828125 C8.43404566 17.7969583 7.43289844 22.12108968 4 27 C1.71809758 29.11890939 -0.23346539 30.61673269 -3 32 C-1.26458498 36.05264549 1.46206059 39.33131124 4.1875 42.75 C4.67927734 43.37036133 5.17105469 43.99072266 5.67773438 44.62988281 C13.82104207 55.86783404 13.82104207 55.86783404 26 61 C26 61.99 26 62.98 26 64 C16.94581449 64.4901514 11.4738006 64.59745321 4.4140625 58.66796875 C0.20326551 54.76359126 -3.31317655 50.23734568 -6.875 45.75 C-7.36387695 45.13527832 -7.85275391 44.52055664 -8.35644531 43.88720703 C-10.39098904 41.27699783 -11.94549461 39.16351617 -13 36 C-17.95 36 -22.9 36 -28 36 C-27.67 43.59 -27.34 51.18 -27 59 C-23.7 59.33 -20.4 59.66 -17 60 C-17 60.99 -17 61.98 -17 63 C-27.23 63 -37.46 63 -48 63 C-48 62.01 -48 61.02 -48 60 C-45.03 59.34 -42.06 58.68 -39 58 C-39 39.52 -39 21.04 -39 2 C-43.455 1.01 -43.455 1.01 -48 0 C-48 -0.99 -48 -1.98 -48 -3 C-12.59612674 -7.19211022 -12.59612674 -7.19211022 0 0 Z " fill="#FEF7F8" transform="translate(490,235)"/>
<path d="M0 0 C3.91534913 1.26325415 8.00502984 0.89711829 12.0703125 0.66796875 C13.27474445 7.72249876 14.35131752 14.50234086 14.0703125 21.66796875 C12.24609375 21.46484375 12.24609375 21.46484375 10.0703125 20.66796875 C8.61328125 18.55859375 8.61328125 18.55859375 7.2578125 15.91796875 C3.5889397 9.43258754 -0.79974592 6.05499432 -7.9296875 3.66796875 C-13.67400228 3.04263828 -19.81358258 2.58933004 -25.0546875 5.35546875 C-28.02759196 7.74671799 -29.55891612 9.12008988 -30.9296875 12.66796875 C-31.46787978 18.31898768 -31.12686288 21.82063833 -27.9296875 26.66796875 C-22.85531008 32.62637119 -16.82085601 36.51769277 -10.1796875 40.54296875 C14.90642794 56.17631508 14.90642794 56.17631508 19.0703125 68.66796875 C19.93079122 77.43255914 19.30356258 84.41800279 14.0703125 91.66796875 C8.51208851 98.2070558 1.46582311 102.06321931 -7.11914062 102.875 C-15.40534092 103.34927148 -23.80718229 103.66117759 -31.53125 100.2265625 C-34.99165244 99.28030699 -34.99165244 99.28030699 -42.9296875 100.66796875 C-43.9196875 92.41796875 -44.9096875 84.16796875 -45.9296875 75.66796875 C-44.2796875 75.99796875 -42.6296875 76.32796875 -40.9296875 76.66796875 C-39.77734375 78.48828125 -39.77734375 78.48828125 -38.9921875 80.79296875 C-36.41586493 87.22355167 -33.10052977 91.8403847 -26.8671875 95.10546875 C-19.50645781 97.9728019 -11.18731282 97.93504981 -3.8671875 94.98046875 C0.40619873 92.77712649 2.92026628 89.96806119 5.0703125 85.66796875 C5.87678667 79.79353758 6.12399857 74.21833066 2.6953125 69.16796875 C-2.93177306 62.85465324 -10.61047605 58.59126807 -17.69091797 54.09619141 C-40.73720765 39.39381468 -40.73720765 39.39381468 -44.9296875 26.66796875 C-45.91596434 20.45615495 -45.45987291 14.92105469 -42.24609375 9.4453125 C-32.6778297 -3.47326359 -14.31090296 -5.97690653 0 0 Z " fill="#FEF8FA" transform="translate(366.9296875,74.33203125)"/>
<path d="M0 0 C2.76276177 0.52268466 5.3260876 1.10869587 8 2 C10.55985259 2.10113565 13.09254651 2.14684401 15.65258789 2.14526367 C16.8188546 2.15030159 16.8188546 2.15030159 18.00868225 2.15544128 C20.58002313 2.16494459 23.1512989 2.16689384 25.72265625 2.16796875 C27.50719734 2.17118089 29.29173816 2.17454493 31.07627869 2.17805481 C34.81623953 2.1840439 38.55617727 2.18589485 42.29614258 2.18530273 C47.09717563 2.18520092 51.8980614 2.19887346 56.69905949 2.21607494 C60.38354682 2.22717001 64.0679982 2.22922274 67.75250053 2.22869301 C69.52319282 2.22987612 71.29388595 2.23431629 73.06456184 2.24202538 C75.53541662 2.25177855 78.0059471 2.24896632 80.47680664 2.24291992 C81.58103973 2.25134918 81.58103973 2.25134918 82.70758057 2.25994873 C86.80592602 2.35961703 86.80592602 2.35961703 90 0 C91.32 0 92.64 0 94 0 C95.297359 2.594718 95.31574654 4.76785439 95.53515625 7.6640625 C95.62216797 8.78554687 95.70917969 9.90703125 95.79882812 11.0625 C95.88583984 12.238125 95.97285156 13.41375 96.0625 14.625 C96.19881836 16.40003906 96.19881836 16.40003906 96.33789062 18.2109375 C96.56232233 21.14036185 96.78285965 24.07002763 97 27 C95.68 27 94.36 27 93 27 C92.75765625 26.10796875 92.5153125 25.2159375 92.265625 24.296875 C91.93046875 23.12640625 91.5953125 21.9559375 91.25 20.75 C90.92515625 19.58984375 90.6003125 18.4296875 90.265625 17.234375 C88.89129477 13.72219775 87.95998773 12.29380747 85 10 C81.62078606 9.35789448 81.62078606 9.35789448 77.828125 9.390625 C77.1457074 9.37408875 76.46328979 9.35755249 75.76019287 9.34051514 C73.59003646 9.29210161 71.42058028 9.27068135 69.25 9.25 C67.77470448 9.22183438 66.29944149 9.19190611 64.82421875 9.16015625 C61.21629802 9.08634775 57.60851028 9.03673106 54 9 C54.01487092 19.86612123 54.05644669 30.731781 54.13209057 41.59765911 C54.16637708 46.64321013 54.19147314 51.68845783 54.19555664 56.73413086 C54.19983601 61.6038283 54.22826874 66.47284131 54.27343178 71.34232521 C54.28641834 73.19980698 54.29071036 75.05737062 54.28615379 76.9148922 C54.28125592 79.51782444 54.30730205 82.11875002 54.34057617 84.72143555 C54.32763771 85.87266403 54.32763771 85.87266403 54.31443787 87.04714966 C54.39922749 91.00536716 54.8604281 92.82212394 57.33296204 95.97322083 C60.6404044 98.4866666 62.69527572 98.68773563 66.8125 98.8125 C67.97394531 98.86019531 69.13539063 98.90789062 70.33203125 98.95703125 C71.65267578 98.97830078 71.65267578 98.97830078 73 99 C73 100.32 73 101.64 73 103 C56.17 103 39.34 103 22 103 C22 101.68 22 100.36 22 99 C22.81984375 98.93941406 23.6396875 98.87882812 24.484375 98.81640625 C25.56203125 98.73261719 26.6396875 98.64882812 27.75 98.5625 C28.81734375 98.48128906 29.8846875 98.40007812 30.984375 98.31640625 C34.57206478 97.98094346 34.57206478 97.98094346 38 97 C39.24693853 93.25918442 39.17670355 89.75521956 39.20532227 85.85668945 C39.21522186 85.02719788 39.22512146 84.1977063 39.23532104 83.34307861 C39.26692205 80.59984191 39.29168798 77.85658789 39.31640625 75.11328125 C39.33697698 73.21184335 39.35797349 71.31041001 39.37937927 69.40898132 C39.43458761 64.40310356 39.48400238 59.39718462 39.53222656 54.39123535 C39.5824506 49.28357272 39.63813196 44.17596993 39.69335938 39.06835938 C39.80092582 29.04562404 39.90237419 19.02283675 40 9 C35.6398718 9.11831427 31.27996549 9.24256713 26.92016602 9.37231445 C25.43713985 9.4156133 23.95406546 9.45729199 22.47094727 9.49731445 C20.33855661 9.55513958 18.20640758 9.61879832 16.07421875 9.68359375 C14.79119873 9.72025146 13.50817871 9.75690918 12.1862793 9.79467773 C8.97888449 9.86561234 8.97888449 9.86561234 6 11 C5.04268966 12.85812302 5.04268966 12.85812302 4.4375 15.125 C4.19257813 15.93066406 3.94765625 16.73632812 3.6953125 17.56640625 C3.46585937 18.36949219 3.23640625 19.17257813 3 20 C2.68675781 21.06541016 2.68675781 21.06541016 2.3671875 22.15234375 C1.8989892 23.76466044 1.44757685 25.38183755 1 27 C0.01 27 -0.98 27 -2 27 C-2.10064005 20.71628693 -1.75941669 14.67190051 -1 8.4375 C-0.90460938 7.61958984 -0.80921875 6.80167969 -0.7109375 5.95898438 C-0.47855491 3.97211325 -0.23994484 1.98597206 0 0 Z " fill="#FEFDFD" transform="translate(405,72)"/>
<path d="M0 0 C2.4430454 -0.04638694 4.88609109 -0.09260569 7.3291626 -0.13760376 C9.19340371 -0.17414129 11.05747533 -0.21962527 12.92138672 -0.27026367 C21.6963142 -0.3496941 30.12826121 1.22149238 37 7 C43.5142716 14.43393347 44.37565017 19.66232352 44.2734375 29.515625 C43.77182808 35.90756221 41.4179201 39.89845707 36.875 44.3125 C29.40712307 50.13141897 20.17044137 50.9312719 11 50 C6.98558313 49.13513461 4.55250886 47.64367906 1.83691406 44.47998047 C-0.55888715 39.94120448 -0.51091574 36.49030634 -0.390625 31.4453125 C-0.38496521 30.54376434 -0.37930542 29.64221619 -0.37347412 28.71334839 C-0.35118555 25.85001237 -0.30100389 22.98795411 -0.25 20.125 C-0.22992525 18.17710148 -0.21167619 16.22918323 -0.1953125 14.28125 C-0.15134547 9.5203453 -0.08237063 4.76038886 0 0 Z " fill="#F5013E" transform="translate(103,120)"/>
<path d="M0 0 C14.97207024 -1.06101285 14.97207024 -1.06101285 19.44140625 1.27734375 C21.125 3 21.125 3 22.46899414 4.87329102 C27.25955596 11.52782523 33.16335727 17.27517035 39 23 C42.90617906 26.83134804 46.75413858 30.65260606 50.3125 34.8125 C54.96681024 40.09790315 60.02013603 45.02013603 65 50 C65 35.48 65 20.96 65 6 C60.545 5.01 60.545 5.01 56 4 C56 2.68 56 1.36 56 0 C64.25 0 72.5 0 81 0 C81 1.32 81 2.64 81 4 C78.36 4.33 75.72 4.66 73 5 C72.67 25.79 72.34 46.58 72 68 C66.9464402 66.98928804 66.17354899 66.67088598 62.8203125 63.24609375 C62.05589844 62.47330078 61.29148438 61.70050781 60.50390625 60.90429688 C59.71886719 60.09025391 58.93382812 59.27621094 58.125 58.4375 C56.95904297 57.25704102 56.95904297 57.25704102 55.76953125 56.05273438 C51.58390762 51.78621214 47.57907232 47.41095307 43.67529297 42.88696289 C40.92144167 39.78516798 37.96280946 36.90039995 35 34 C30.70087642 29.75065574 26.49013777 25.49948413 22.625 20.84375 C21.10530587 19.11948166 19.52699018 17.50563646 17.8984375 15.88476562 C17.35622559 15.34452759 16.81401367 14.80428955 16.25537109 14.24768066 C15.84109863 13.83594604 15.42682617 13.42421143 15 13 C14.9494106 19.79928419 14.91431333 26.5985201 14.89013672 33.39794922 C14.88006108 35.71242079 14.86640025 38.02687959 14.84912109 40.34130859 C14.82494135 43.66246693 14.8135327 46.9834574 14.8046875 50.3046875 C14.79436493 51.34430634 14.78404236 52.38392517 14.77340698 53.45504761 C14.77318039 54.89631516 14.77318039 54.89631516 14.77294922 56.36669922 C14.768508 57.21497284 14.76406677 58.06324646 14.75949097 58.93722534 C14.80984639 61.22348545 14.80984639 61.22348545 17 63 C18.96690374 63.67292501 18.96690374 63.67292501 21.125 64.125 C22.40375 64.41375 23.6825 64.7025 25 65 C25 65.66 25 66.32 25 67 C16.42 67 7.84 67 -1 67 C-1 66.01 -1 65.02 -1 64 C1.64 63.34 4.28 62.68 7 62 C7.33 43.19 7.66 24.38 8 5 C5.36 4.67 2.72 4.34 0 4 C0 2.68 0 1.36 0 0 Z " fill="#FEF3F6" transform="translate(162,231)"/>
<path d="M0 0 C25.63913761 -0.51278275 25.63913761 -0.51278275 33.4375 5.3125 C38.10867472 10.2115369 39.19219014 13.79697176 39.375 20.5 C39.20905413 26.84201809 38.30348408 30.63070209 33.8125 35.25 C26.75491931 39.64138354 19.03545968 39.25471528 11 39.125 C7.37 39.08375 3.74 39.0425 0 39 C0 26.13 0 13.26 0 0 Z " fill="#F5013E" transform="translate(103,77)"/>
<path d="M0 0 C9.24 0 18.48 0 28 0 C28 0.99 28 1.98 28 3 C26.2984375 3.2165625 26.2984375 3.2165625 24.5625 3.4375 C21.19222799 3.61171478 21.19222799 3.61171478 20 5 C19.70585317 10.99947838 19.68577063 17.0015695 19.64990234 23.00756836 C19.63340198 25.03177434 19.60619095 27.05592349 19.56787109 29.07983398 C19.5128076 32.0027481 19.49117737 34.92429164 19.4765625 37.84765625 C19.45389313 38.74380142 19.43122375 39.63994659 19.40786743 40.56324768 C19.42867397 46.82016979 20.81442473 51.24621936 25 56 C30.47261205 60.02810222 35.84734164 60.65326661 42.5 60.5625 C43.30308594 60.58634766 44.10617188 60.61019531 44.93359375 60.63476562 C51.12896418 60.61970395 55.16511698 58.83764227 60 55 C64.96468947 49.70433123 65.30848547 43.9993886 65.30078125 37.0859375 C65.30720894 35.80875351 65.30720894 35.80875351 65.31376648 34.50576782 C65.31949292 32.71218758 65.3200225 30.91858411 65.31567383 29.125 C65.31250254 26.37720494 65.33603234 23.63047548 65.36132812 20.8828125 C65.36360012 19.13802219 65.36430508 17.39322899 65.36328125 15.6484375 C65.372491 14.82652924 65.38170074 14.00462097 65.39118958 13.1578064 C65.47785077 8.94876141 65.47785077 8.94876141 63.6759491 5.30288696 C61.28291416 3.4425357 58.96086368 3.32898485 56 3 C56 2.01 56 1.02 56 0 C64.25 0 72.5 0 81 0 C81 0.66 81 1.32 81 2 C79.865625 2.474375 78.73125 2.94875 77.5625 3.4375 C74.24259834 4.63622083 74.24259834 4.63622083 73 6 C72.88901925 8.76573192 72.83832855 11.51064614 72.82421875 14.27734375 C72.80099167 16.00587117 72.77687323 17.73438679 72.75195312 19.46289062 C72.71705046 22.18798366 72.68762356 24.9126517 72.67407227 27.63793945 C72.59751118 40.51315904 72.34800644 51.40271943 63.0625 61.30859375 C54.23874581 68.54474065 41.85450502 68.92699844 31 68 C22.77880266 65.98009618 16.5122761 62.26489021 12 55 C9.04765658 49.26048893 8.54720954 44.60320868 8.5234375 38.19921875 C8.50006821 36.82283989 8.50006821 36.82283989 8.47622681 35.4186554 C8.42896558 32.50827802 8.4010158 29.59813805 8.375 26.6875 C8.338495 23.75917496 8.29792261 20.83098415 8.25234985 17.90278625 C8.22514184 16.08547353 8.20378246 14.26806203 8.18881226 12.4506073 C8.26871253 8.08812652 8.26871253 8.08812652 7 4 C4.6859378 3.26924352 2.35171131 2.59861742 0 2 C0 1.34 0 0.68 0 0 Z " fill="#FEF5F7" transform="translate(70,232)"/>
<path d="M0 0 C17.16 0 34.32 0 52 0 C52 5.28 52 10.56 52 16 C51.01 15.67 50.02 15.34 49 15 C48.32215008 12.66989091 47.65583207 10.33640176 47 8 C43.71252584 5.80835056 42.51505175 5.71320614 38.67578125 5.5859375 C37.74934814 5.55032715 36.82291504 5.5147168 35.8684082 5.47802734 C34.6949585 5.44402832 33.52150879 5.4100293 32.3125 5.375 C26.7128125 5.189375 26.7128125 5.189375 21 5 C21 13.25 21 21.5 21 30 C31.395 29.505 31.395 29.505 42 29 C42.66 27.02 43.32 25.04 44 23 C44.99 23 45.98 23 47 23 C47 29.6 47 36.2 47 43 C46.01 43 45.02 43 44 43 C43.505 39.535 43.505 39.535 43 36 C32.11 35.505 32.11 35.505 21 35 C21.1400827 39.31275889 21.2867801 43.62511136 21.4375 47.9375 C21.47681641 49.16919922 21.51613281 50.40089844 21.55664062 51.66992188 C21.59853516 52.83974609 21.64042969 54.00957031 21.68359375 55.21484375 C21.72025146 56.29886475 21.75690918 57.38288574 21.79467773 58.49975586 C21.72364265 60.939263 21.72364265 60.939263 23 62 C26.57543444 62.28052624 30.1648749 62.23184747 33.75 62.25 C34.75289063 62.270625 35.75578125 62.29125 36.7890625 62.3125 C43.95007434 62.46597437 43.95007434 62.46597437 50 59 C51.41455894 57.0062203 51.41455894 57.0062203 52.3125 54.8125 C52.63863281 54.09707031 52.96476562 53.38164062 53.30078125 52.64453125 C53.53152344 52.10183594 53.76226562 51.55914062 54 51 C54.66 51 55.32 51 56 51 C56.02741912 52.5415636 56.04658248 54.08327474 56.0625 55.625 C56.07410156 56.48351562 56.08570313 57.34203125 56.09765625 58.2265625 C56 61 56 61 55 67 C36.19 67 17.38 67 -2 67 C-2 66.01 -2 65.02 -2 64 C-0.95199219 63.94392578 -0.95199219 63.94392578 0.1171875 63.88671875 C1.02726562 63.82097656 1.93734375 63.75523437 2.875 63.6875 C3.77992188 63.62949219 4.68484375 63.57148438 5.6171875 63.51171875 C8.36221601 63.2117961 8.36221601 63.2117961 10 60 C10.30349571 57.56969239 10.30349571 57.56969239 10.25878906 54.82592773 C10.26509338 53.77150986 10.27139771 52.71709198 10.27789307 51.63072205 C10.2738446 50.49316971 10.26979614 49.35561737 10.265625 48.18359375 C10.26753845 47.01619156 10.2694519 45.84878937 10.27142334 44.64601135 C10.27278501 42.17717269 10.26908986 39.70832687 10.26074219 37.23950195 C10.25003311 33.44921895 10.26064335 29.65940892 10.2734375 25.86914062 C10.27211609 23.47395728 10.26955408 21.07877423 10.265625 18.68359375 C10.26967346 17.54401718 10.27372192 16.40444061 10.27789307 15.23033142 C10.27158875 14.1790657 10.26528442 13.12779999 10.25878906 12.04467773 C10.25719788 11.11662827 10.25560669 10.1885788 10.25396729 9.23240662 C10.21150355 6.79640536 10.21150355 6.79640536 8 5 C5.34462628 4.43479997 2.70855287 4.26211802 0 4 C0 2.68 0 1.36 0 0 Z " fill="#FEF0F3" transform="translate(373,231)"/>
<path d="M0 0 C8.25 0 16.5 0 25 0 C25 1.32 25 2.64 25 4 C23.948125 4.12375 22.89625 4.2475 21.8125 4.375 C19.40635766 5.10106085 18.28033594 5.61128647 16.79760742 7.66723633 C12.48829116 16.66149215 9.03106598 25.99310141 5.5 35.3125 C4.84292305 37.03598851 4.18537396 38.7592971 3.52734375 40.48242188 C1.16133215 46.68237764 -1.20028986 52.88397216 -3.546875 59.09130859 C-4.21976562 60.86175537 -4.21976562 60.86175537 -4.90625 62.66796875 C-5.29103516 63.68528076 -5.67582031 64.70259277 -6.07226562 65.75073242 C-7 68 -7 68 -8 69 C-9.99958364 69.04080783 -12.00045254 69.04254356 -14 69 C-15.77561713 64.75198684 -17.54567341 60.50167556 -19.3125 56.25 C-19.58022217 55.60617371 -19.84794434 54.96234741 -20.1237793 54.29901123 C-23.18783391 46.92159467 -26.20964193 39.53119454 -29.10546875 32.0859375 C-29.3513826 31.45429688 -29.59729645 30.82265625 -29.85066223 30.171875 C-31.02425667 27.15206895 -32.18929064 24.12925027 -33.3449707 21.10253906 C-36.56569817 12.74460308 -36.56569817 12.74460308 -41 5 C-44.09756917 3.49195465 -44.09756917 3.49195465 -47 3 C-47 2.34 -47 1.68 -47 1 C-37.1 1 -27.2 1 -17 1 C-17 1.99 -17 2.98 -17 4 C-21.455 4.495 -21.455 4.495 -26 5 C-27.9014687 10.22789189 -25.7367222 14.03112056 -23.66796875 18.84375 C-23.31616043 19.69046265 -22.96435211 20.53717529 -22.60188293 21.4095459 C-21.47593793 24.11165203 -20.33210941 26.80575444 -19.1875 29.5 C-18.42783152 31.31329775 -17.66935435 33.12709509 -16.91210938 34.94140625 C-15.51936734 38.27466366 -14.11945221 41.60470916 -12.71166992 44.93164062 C-11.44006748 47.94132415 -10.19726285 50.95976807 -9 54 C-5.39102956 46.16567556 -2.24496554 38.16969605 0.85595703 30.12426758 C1.4547268 28.57600134 2.05796209 27.02945507 2.66552734 25.48461914 C3.55248075 23.2291076 4.42607913 20.96882218 5.296875 18.70703125 C5.56868591 18.02252396 5.84049683 17.33801666 6.12054443 16.63276672 C7.64964583 12.60721836 8.28852871 9.30082902 8 5 C5.36 4.67 2.72 4.34 0 4 C0 2.68 0 1.36 0 0 Z " fill="#FEF4F7" transform="translate(341,231)"/>
<path d="M0 0 C9.57 0 19.14 0 29 0 C29 0.99 29 1.98 29 3 C27.02 3.33 25.04 3.66 23 4 C23.4997606 9.02643833 25.93633197 12.28958133 28.75 16.3125 C29.66249441 17.64251893 30.57396282 18.97324239 31.484375 20.3046875 C32.13889648 21.25746582 32.13889648 21.25746582 32.80664062 22.22949219 C34.28311598 24.42004033 35.64944355 26.66758886 37 28.9375 C37.66 29.948125 38.32 30.95875 39 32 C39.66 32 40.32 32 41 32 C43.64431032 28.25851862 45.83389987 24.21519112 48.125 20.25 C48.78371094 19.13882813 49.44242188 18.02765625 50.12109375 16.8828125 C50.74371094 15.81289062 51.36632812 14.74296875 52.0078125 13.640625 C52.58160645 12.65610352 53.15540039 11.67158203 53.74658203 10.65722656 C55.28441416 7.88671494 55.28441416 7.88671494 55 4 C53.02 3.67 51.04 3.34 49 3 C49 2.01 49 1.02 49 0 C57.25 0 65.5 0 74 0 C74 0.99 74 1.98 74 3 C72.07942708 3.32552083 70.15885417 3.65104167 68.23828125 3.9765625 C57.88699668 8.70961059 48.17273723 29.57449739 44 40 C42.32283037 46.74182019 42.49220582 53.24835019 44 60 C46.76223278 62.76223278 49.20706617 62.57856291 53 63 C53 63.99 53 64.98 53 66 C43.1 66 33.2 66 23 66 C23 65.01 23 64.02 23 63 C25.97 62.34 28.94 61.68 32 61 C34.21356596 43.81851184 29.87248229 34.11528437 19.70898438 20.37158203 C18.23204414 18.32201097 16.90762613 16.2724782 15.640625 14.08984375 C11.92819089 7.7771717 9.00855685 4.63515903 1.90625 2.453125 C1.2771875 2.30359375 0.648125 2.1540625 0 2 C0 1.34 0 0.68 0 0 Z " fill="#FEF6F8" transform="translate(694,232)"/>
<path d="M0 0 C1.52017837 0.04462909 3.04216797 0.03904545 4.5625 0 C6.04118221 -0.03785426 7.52155788 -0.04629173 9 0 C10.94090826 1.94090826 10.39919435 5.47293902 10.5625 8.0625 C10.64628906 9.35285156 10.73007812 10.64320313 10.81640625 11.97265625 C10.87699219 12.97167969 10.93757812 13.97070312 11 15 C10.01 15 9.02 15 8 15 C6.82421875 13.35546875 6.82421875 13.35546875 5.6875 11.1875 C3.28959492 7.19099154 1.61922341 5.36865879 -3 4 C-9.87370923 3.24060311 -9.87370923 3.24060311 -16.296875 5.2578125 C-18.36371439 7.37205646 -18.59431716 8.32490243 -18.625 11.25 C-18.65851562 11.97703125 -18.69203125 12.7040625 -18.7265625 13.453125 C-16.69057337 20.59003314 -10.22560153 24.47062561 -4.125 27.9375 C3.06392435 32.22260478 10.77584258 36.87084479 14 45 C14.74851927 50.89094386 14.49233022 56.0431442 11 61 C6.36756187 65.86639966 2.13271897 68.72764316 -4.7265625 69.1796875 C-10.40344338 69.30903415 -15.57959983 68.93283641 -21.0625 67.4375 C-23.31924716 66.85315942 -23.31924716 66.85315942 -27 67 C-29.29612756 55.47835991 -29.29612756 55.47835991 -29 50 C-28.01 50 -27.02 50 -26 50 C-25.72027344 50.67546875 -25.44054687 51.3509375 -25.15234375 52.046875 C-22.02391577 59.05511542 -22.02391577 59.05511542 -16.0234375 63.44921875 C-10.61776745 64.92064631 -5.71345553 64.64254582 -0.5 62.6875 C2.25286186 60.82931825 3.73580583 59.31080951 4.40625 55.984375 C4.4371875 55.24703125 4.468125 54.5096875 4.5 53.75 C4.5515625 53.02296875 4.603125 52.2959375 4.65625 51.546875 C3.2461295 46.07426449 -1.15324136 42.33984163 -5.8046875 39.41015625 C-7.15625269 38.61864732 -8.51318319 37.83623757 -9.875 37.0625 C-17.18253145 32.71420992 -23.22612162 28.16081757 -28 21 C-28.73073976 16.1939808 -29.08337825 11.20916633 -26.90234375 6.76171875 C-20.91754215 -0.69135418 -8.97721808 -4.48860904 0 0 Z " fill="#FEF4F6" transform="translate(551,231)"/>
<path d="M0 0 C20.79 0 41.58 0 63 0 C64.125 9 64.125 9 64.0625 13.5 C64.05347656 14.3559375 64.04445313 15.211875 64.03515625 16.09375 C64.02355469 16.7228125 64.01195312 17.351875 64 18 C63.01 18 62.02 18 61 18 C60.54427083 16.01432292 60.08854167 14.02864583 59.6328125 12.04296875 C59.01992277 9.72257026 59.01992277 9.72257026 57 7 C54.78067723 6.49223956 54.78067723 6.49223956 52.2109375 6.48828125 C51.26992188 6.45283203 50.32890625 6.41738281 49.359375 6.38085938 C48.37453125 6.35830078 47.3896875 6.33574219 46.375 6.3125 C45.38242187 6.27833984 44.38984375 6.24417969 43.3671875 6.20898438 C40.91157094 6.12634343 38.45631859 6.05724873 36 6 C36.0843001 13.26713041 36.17914257 20.534042 36.28752708 27.80085564 C36.33751898 31.17497504 36.38384837 34.54906269 36.421875 37.92333984 C36.46737328 41.80064629 36.52539279 45.67759052 36.5859375 49.5546875 C36.59748871 50.76929657 36.60903992 51.98390564 36.62094116 53.23532104 C36.64081085 54.35633209 36.66068054 55.47734314 36.68115234 56.63232422 C36.69447601 57.62271698 36.70779968 58.61310974 36.7215271 59.6335144 C36.77427446 62.18735695 36.77427446 62.18735695 39 64 C41.20250992 64.46006346 41.20250992 64.46006346 43.625 64.625 C44.44226563 64.69976562 45.25953125 64.77453125 46.1015625 64.8515625 C47.04128906 64.92503906 47.04128906 64.92503906 48 65 C48 65.99 48 66.98 48 68 C36.78 68 25.56 68 14 68 C14 67.34 14 66.68 14 66 C15.04800781 65.83564453 15.04800781 65.83564453 16.1171875 65.66796875 C17.02726563 65.50941406 17.93734375 65.35085938 18.875 65.1875 C19.77992188 65.03667969 20.68484375 64.88585937 21.6171875 64.73046875 C24.34412478 64.16948699 24.34412478 64.16948699 26 61 C26.32821632 58.47493297 26.32821632 58.47493297 26.31884766 55.6105957 C26.33871735 54.50968094 26.35858704 53.40876617 26.37905884 52.27449036 C26.39061005 51.08691635 26.40216125 49.89934235 26.4140625 48.67578125 C26.43342865 47.45924362 26.4527948 46.24270599 26.4727478 44.98930359 C26.53261021 41.09710743 26.57895618 37.20488181 26.625 33.3125 C26.66317359 30.67641927 26.70222495 28.04035109 26.7421875 25.40429688 C26.8383173 18.93630922 26.92334539 12.46824618 27 6 C23.54099522 6.1095693 20.08310891 6.24026848 16.625 6.375 C15.64015625 6.4059375 14.6553125 6.436875 13.640625 6.46875 C12.69960938 6.50742188 11.75859375 6.54609375 10.7890625 6.5859375 C9.48509521 6.63306885 9.48509521 6.63306885 8.15478516 6.68115234 C5.79038206 6.81229433 5.79038206 6.81229433 4 9 C3.40165446 10.52056618 2.86493344 12.06612088 2.375 13.625 C1.98441406 14.85089844 1.98441406 14.85089844 1.5859375 16.1015625 C1.39257812 16.72804687 1.19921875 17.35453125 1 18 C0.34 18 -0.32 18 -1 18 C-1.0276619 16.50011039 -1.0466861 15.00006131 -1.0625 13.5 C-1.07990234 12.24703125 -1.07990234 12.24703125 -1.09765625 10.96875 C-0.9768495 7.29622472 -0.45576708 3.64613666 0 0 Z " fill="#FEF5F7" transform="translate(625,230)"/>
<path d="M0 0 C8.58 0 17.16 0 26 0 C26 0.99 26 1.98 26 3 C24.865625 3.309375 23.73125 3.61875 22.5625 3.9375 C19.21224901 4.62924531 19.21224901 4.62924531 18 6 C17.89610499 7.64114518 17.86147435 9.28673565 17.85473633 10.93115234 C17.84835648 11.98249359 17.84197662 13.03383484 17.83540344 14.11703491 C17.83429062 15.26177277 17.8331778 16.40651062 17.83203125 17.5859375 C17.82870285 18.75379791 17.82537445 19.92165833 17.82194519 21.12490845 C17.81687051 23.60149744 17.81453703 26.07809331 17.81469727 28.5546875 C17.81251341 32.35167689 17.79437038 36.14837469 17.77539062 39.9453125 C17.77245635 42.34635317 17.77047178 44.74739522 17.76953125 47.1484375 C17.76234573 48.28912689 17.75516022 49.42981628 17.74775696 50.60507202 C17.75083359 51.66271759 17.75391022 52.72036316 17.75708008 53.81005859 C17.75565506 54.74191986 17.75423004 55.67378113 17.75276184 56.63388062 C17.84251251 59.26776314 17.84251251 59.26776314 20 62 C23.06556598 62.73343428 23.06556598 62.73343428 26 63 C26 63.99 26 64.98 26 66 C17.42 66 8.84 66 0 66 C0 65.01 0 64.02 0 63 C1.98 62.34 3.96 61.68 6 61 C6 42.52 6 24.04 6 5 C4.02 4.34 2.04 3.68 0 3 C0 2.01 0 1.02 0 0 Z " fill="#FEF3F6" transform="translate(584,232)"/>
<path d="M0 0 C8.58 0 17.16 0 26 0 C26 0.99 26 1.98 26 3 C24.865625 3.309375 23.73125 3.61875 22.5625 3.9375 C19.21224901 4.62924531 19.21224901 4.62924531 18 6 C17.89602982 7.67708424 17.86147091 9.35852791 17.85473633 11.03881836 C17.84835648 12.11340805 17.84197662 13.18799774 17.83540344 14.29515076 C17.83429062 15.46489944 17.8331778 16.63464813 17.83203125 17.83984375 C17.82870285 19.03227188 17.82537445 20.22470001 17.82194519 21.45326233 C17.81687084 23.98112603 17.81453702 26.50899645 17.81469727 29.03686523 C17.8125114 32.91726654 17.79436243 36.79738346 17.77539062 40.67773438 C17.77245677 43.12760319 17.77047192 45.57747336 17.76953125 48.02734375 C17.76234573 49.19506821 17.75516022 50.36279266 17.74775696 51.56590271 C17.75083359 52.64364456 17.75391022 53.72138641 17.75708008 54.83178711 C17.75565506 55.78363388 17.75423004 56.73548065 17.75276184 57.71617126 C17.78001159 60.19794194 17.78001159 60.19794194 20 62 C21.98821313 62.39764263 23.98944339 62.73775349 26 63 C26 63.99 26 64.98 26 66 C17.42 66 8.84 66 0 66 C0 65.01 0 64.02 0 63 C1.98 62.34 3.96 61.68 6 61 C6 42.52 6 24.04 6 5 C4.02 4.34 2.04 3.68 0 3 C0 2.01 0 1.02 0 0 Z " fill="#FEF4F6" transform="translate(258,232)"/>
<path d="M0 0 C14.20689655 0 14.20689655 0 20 3 C25.12362155 8.25499646 25.35399206 12.99062014 25.27734375 20.05078125 C24.90073691 24.0555441 23.75976479 26.09498443 21 29 C13.38418777 34.75071536 10.64923021 34 0 34 C0 22.78 0 11.56 0 0 Z " fill="#F5023F" transform="translate(462,234)"/>
</svg>
