<svg version="1.2" baseProfile="tiny-ps" xmlns="http://www.w3.org/2000/svg" viewBox="0 0 1575 1781" width="1575" height="1781">
	<title>novartis-logo-svg</title>
	<defs>
		<linearGradient id="grd1" gradientUnits="userSpaceOnUse"  x1="0" y1="978.212" x2="1569.773" y2="978.212">
			<stop offset="0.3" stop-color="#e74a21"  />
			<stop offset="0.7" stop-color="#ec9a1e"  />
		</linearGradient>
	</defs>
	<style>
		tspan { white-space:pre }
		.shp0 { fill: url(#grd1) } 
		.shp1 { fill: #0460a9 } 
	</style>
	<g id="_Group_">
		<path id="_Path_" class="shp0" d="M1084.06 798.76L1079.65 810.14C1153.03 842.43 1317.74 970.51 1317.74 1228.49C1317.74 1471.43 1113.04 1716.2 791.31 1716.2C391.07 1716.2 253.13 1482.07 253.13 1267.02C253.13 991.42 445.73 807.94 445.73 556.92C445.21 512.85 437.27 469.18 422.24 427.75C407.21 386.32 385.3 347.71 357.45 313.56C329.6 279.41 296.19 250.2 258.63 227.15C221.07 204.11 179.89 187.56 136.84 178.21L130.23 189.58C145.92 204.81 160.03 221.58 172.35 239.64C184.67 257.69 195.14 276.95 203.6 297.11C212.06 317.27 218.46 338.23 222.71 359.68C226.97 381.13 229.04 402.95 228.92 424.81C228.92 696.01 0.37 888.67 0.37 1199.87C0.37 1486.47 200.67 1778.59 780.67 1778.59C1297.57 1778.59 1570.14 1525.37 1570.14 1256.01C1569.77 1024.82 1404.32 829.22 1084.06 798.76Z" />
		<path id="_Compound_Path_" fill-rule="evenodd" class="shp1" d="M3354.89 1732.35L2667.77 846.1L2667.77 1645.01L2807.91 1678.4L2807.91 1715.1L2488.38 1715.1L2488.38 1678.4L2602.84 1645.01L2602.84 774.54C2595.9 768.07 2588.6 762.02 2580.96 756.4C2573.32 750.78 2565.36 745.61 2557.12 740.92C2548.88 736.23 2540.38 732.02 2531.65 728.32C2522.92 724.62 2513.98 721.42 2504.89 718.76C2490.95 715.82 2472.24 712.52 2472.24 712.52L2472.24 675.82L2743.34 675.82L3330.31 1439.13L3330.31 746.65L3190.17 712.89L3190.17 676.19L3509.7 676.19L3509.7 712.89L3395.24 746.65L3395.24 1538.95C3395.24 1612.35 3400.38 1719.14 3401.48 1732.71L3354.89 1732.35ZM4791.49 1167.94C4791.49 1534.91 4534.7 1747.76 4254.05 1747.76C3973.41 1747.76 3715.51 1531.98 3715.51 1196.56C3715.51 861.15 3972.31 643.16 4251.48 643.16C4321.76 640.84 4391.78 652.73 4457.35 678.1C4522.93 703.48 4582.71 741.83 4633.13 790.86C4683.54 839.89 4723.55 898.58 4750.76 963.44C4777.98 1028.29 4791.83 1097.97 4791.49 1168.31L4791.49 1167.94ZM4232.04 691.6C3998.72 691.6 3893.43 917.29 3893.43 1158.76C3893.43 1400.23 4026.6 1699.69 4277.16 1699.69C4512.68 1699.69 4612.84 1461.15 4612.84 1222.98C4612.84 953.26 4451.42 691.6 4232.04 691.6ZM5013.44 745.92L4903.38 712.15L4903.38 675.46L5324.9 675.46L5324.9 712.15L5192.83 745.92L5483.75 1539.32L5774.67 745.92L5642.6 712.15L5642.6 675.46L5954.42 675.46L5954.42 712.15L5844.37 745.92L5480.08 1734.92L5386.9 1734.92L5013.44 745.92ZM8002.21 1642.44L8140.51 1679.14L8140.51 1715.83L7867.21 1715.83L7558.68 1238.76L7437.99 1238.76L7437.99 1644.64L7578.12 1678.4L7578.12 1715.1L7151.11 1715.1L7151.11 1678.4L7271.8 1644.64L7271.8 747.02L7151.11 713.26L7151.11 676.56C7174.22 675.82 7357.64 671.79 7541.07 671.79C7836.76 671.79 7956.72 793.26 7956.72 949.95C7956.72 1145.19 7750.91 1197.66 7714.23 1206.84L8002.21 1642.44ZM9390.39 1678.4L9537.13 1645.01L9537.13 746.28L9390.39 712.52L9390.39 675.82L9847.86 675.82L9847.86 712.52L9701.11 746.28L9701.11 1645.01L9847.86 1678.4L9847.86 1715.1L9390.39 1715.1L9390.39 1678.4ZM10128.13 1429.59L10157.12 1429.59L10254.33 1653.45C10268.73 1660.68 10283.51 1667.11 10298.61 1672.7C10313.72 1678.29 10329.12 1683.04 10344.76 1686.93C10360.39 1690.82 10376.22 1693.83 10392.19 1695.96C10408.15 1698.09 10424.22 1699.34 10440.33 1699.69C10566.53 1699.69 10681.72 1626.29 10681.72 1494.91C10681.72 1395.1 10617.15 1335.65 10512.6 1280.97L10409.14 1227.39C10285.51 1163.17 10161.88 1072.16 10161.88 925.73C10161.88 766.47 10271.94 643.53 10507.46 643.53C10528.11 643.74 10548.75 644.74 10569.33 646.52C10589.9 648.3 10610.41 650.87 10630.79 654.22C10651.17 657.57 10671.41 661.69 10691.48 666.58C10711.55 671.47 10731.42 677.12 10751.05 683.53L10775.63 924.27L10744.45 924.27L10654.57 731.24C10643 724.77 10631.02 719.05 10618.72 714.11C10606.42 709.16 10593.81 705.01 10580.98 701.67C10568.16 698.33 10555.13 695.81 10541.98 694.13C10528.83 692.45 10515.58 691.6 10502.33 691.6C10383.1 691.6 10302.02 765 10302.02 866.65C10302.02 958.76 10363.29 1016.74 10468.21 1071.06L10590.74 1134.91C10758.02 1221.52 10837.26 1301.88 10837.26 1450.51C10837.26 1634 10665.21 1748.13 10451.33 1748.13C10426.21 1748.51 10401.09 1747.86 10376.02 1746.19C10350.95 1744.52 10325.97 1741.82 10301.12 1738.1C10276.27 1734.38 10251.59 1729.65 10227.13 1723.91C10202.67 1718.18 10178.46 1711.44 10154.55 1703.72L10128.13 1429.59ZM5887.29 1678.4L6005.05 1645.01L6368.6 675.09L6490.03 643.9L6865.33 1644.64L6983.09 1678.4L6983.09 1715.1L6537.72 1715.1L6537.72 1678.4L6688.5 1644.64L6582.11 1356.93L6182.24 1356.93L6076.59 1644.64L6227.36 1678.03L6227.36 1714.73L5887.29 1714.73L5887.29 1678.4ZM6210.12 1280.23L6556.07 1280.23L6384.38 816.38L6210.12 1280.23ZM7788.7 960.6C7788.7 780.78 7657.73 730.14 7437.62 730.14L7437.62 1184.45L7504.39 1184.45C7673.14 1184.45 7787.6 1094.18 7788.7 960.6ZM8368.33 731.97L8287.62 905.55L8256.07 905.55L8279.55 676.92L9116.35 676.92L9139.83 905.55L9108.28 905.55L9026.84 730.14L8779.94 730.14L8779.94 1645.01L8926.68 1678.4L8926.68 1715.1L8469.22 1715.1L8469.22 1678.4L8615.96 1645.01L8615.96 729.77L8368.33 731.97ZM776.63 1390.33L629.89 3.52L934.38 3.52L787.64 1390.33L776.63 1390.33Z" />
	</g>
</svg>